# xmcd
# Copyright (C) 1995-1998 Ti Kan
#
# Track frame offsets:
#       150
#       18862
#       38872
#       54675
#
# Disc length: 967 seconds
#
# Revision: 2
# Processed by: cddbd v1.4PL0 Copyright (c) Steve Scherf et al.
# Submitted via: CD-Transfer v1.0
#
DISCID=2a03c504
DTITLE=Don - Don - La Vita È Bella
DYEAR=2003
DGENRE=
TTITLE0=Che Finita Sia
TTITLE1=La Vita È Bella
TTITLE2=Cuore Naufrago
TTITLE3=Grazie
EXTD=
EXTT0=
EXTT1=
EXTT2=
EXTT3=
PLAYORDER=
